# xmcd CD database file
# Copyright (C) 1995-1998 Ti Kan
#
# Track frame offsets:
#	150
#	11645
#	28190
#	37822
#	46812
#	58564
#	74157
#	85290
#	98372
#	113260
#
# Disc length: 1638 seconds
#
# Revision: 1
# Processed by: cddbd v1.4b41PL1 Copyright (c) Steve Scherf et al.
# Submitted via: CDex 1.30
#
DISCID=7206640a
DTITLE=The North Star Singers and Musicians - Country Time Christmas
DYEAR=1998
DGENRE=Country
TTITLE0=Go Tell It On The Mountain
TTITLE1=Silent Night
TTITLE2=O Little Town Of Bethlehem
TTITLE3=Jingle Bells
TTITLE4=Have Yourself A Merry Little Christmas
TTITLE5=O Holy Night
TTITLE6=Winter Wonderland
TTITLE7=The Christmas Song
TTITLE8=White Christmas
TTITLE9=Silver Bells
EXTD=YEAR: 1998  ID3G:   2
EXTT0=
EXTT1=
EXTT2=
EXTT3=
EXTT4=
EXTT5=
EXTT6=
EXTT7=
EXTT8=
EXTT9=
PLAYORDER=
